<?xml version="1.0" encoding="UTF-8"?><svg id="Layer_2" xmlns="http://www.w3.org/2000/svg" viewBox="0 0 77.48 19.98"><defs><style>.cls-1{fill:#000;}.cls-1,.cls-2,.cls-3{stroke-width:0px;}.cls-2{fill:#231f20;}.cls-3{fill:#005da6;}</style></defs><g id="Layer_1-2"><path class="cls-2" d="M30.4,2.23l3.7,9.46h.6l3.64-9.46h2.54v17.56h-1.76V5.4h-.6l-3.38,9.02h-1.81l-3.46-9.02h-.52v14.39h-1.65V2.23h2.7Z"/><path class="cls-2" d="M49.38,2.23c3.28,0,4.56,1.31,4.56,3.64v1.55c0,1.47-.6,2.44-1.68,3.07v.58c1.08.52,1.99,1.42,1.99,3.36v1.21c0,2.36-1,4.17-4.33,4.17h-5.16V2.23h4.61ZM46.52,10.22h2.86c1.78,0,2.81-.94,2.81-2.6v-1.55c0-1.47-.68-2.46-3.01-2.46h-2.65v6.61ZM46.52,18.4h3.22c2.23,0,2.78-1.26,2.78-2.96v-1.15c0-2.02-1.42-2.75-3.04-2.75h-2.96v6.87Z"/><path class="cls-2" d="M64.37,2.23v1.52h-2.75v14.52h2.75v1.52h-7.29v-1.52h2.75V3.75h-2.75v-1.52h7.29Z"/><path class="cls-2" d="M72.58,2.05c3.57,0,4.8,2.07,4.8,5.48v1.49h-1.78v-1.49c0-2.54-.66-3.85-3.04-3.85h-.26c-2.33,0-3.12,1.31-3.12,3.85v7.03c0,2.7,1.02,3.8,3.15,3.8h.26c2.12,0,3.12-1.1,3.12-3.8v-2.04h1.78v7.29h-1.39v-1.28h-.6c-.71.97-1.83,1.47-3.36,1.47h-.26c-3.01,0-4.48-1.78-4.48-5.43v-7.03c0-3.41,1.36-5.48,4.93-5.48h.26Z"/><path class="cls-1" d="M22.99,11.72V3.66c0-.29-.23-.52-.52-.52h-2.24v-.4c0-1.51-1.23-2.73-2.73-2.73H5.5c-1.51,0-2.73,1.23-2.73,2.73v.4H.52c-.29,0-.52.23-.52.52v11.93c0,.29.23.52.52.52h2.93v.94c0,.29.23.52.52.52h.44l.97,2.05c.09.18.27.3.47.3h.95c.2,0,.38-.12.47-.3l.97-2.05h.44c.29,0,.52-.23.52-.52v-.94h7.97c.23,2.13,2.02,3.81,4.21,3.81,2.35,0,4.26-1.91,4.26-4.26,0-1.78-1.1-3.3-2.64-3.94ZM18.16,15.61s0,0,0-.01c.03-1.52,1.13-2.8,2.57-3.09.21-.04.42-.06.64-.06.17,0,.33.02.49.05.14.03.29.06.45.11,0,0,0,0,0,0,1.31.41,2.27,1.62,2.27,3.06,0,1.77-1.44,3.22-3.22,3.22s-3.22-1.44-3.22-3.22c0-.02,0-.03,0-.05ZM17.39,14.19c-.04.1-.07.2-.09.3-.05.16-.09.32-.11.48,0,.03-.02.06-.02.09H7.23l1.45-1.45h8.96c-.03.05-.05.11-.07.17-.07.13-.13.27-.18.41ZM8.15,16.53h-3.66v-.42h3.66v.42ZM21.94,11.45c-.2-.03-.39-.05-.57-.05-.28,0-.55.03-.82.08-.09.02-.17.05-.26.07-.17.05-.34.09-.5.16-.1.04-.19.09-.29.14-.14.07-.28.14-.41.22-.1.06-.18.13-.28.2-.12.09-.23.18-.34.28,0,0-.01.01-.02.02h-9.99c-.14,0-.27.06-.37.15l-2.34,2.34H1.04V4.18h20.9v7.27ZM19.18,3.14H3.81v-.4c0-.93.76-1.69,1.69-1.69h11.99c.93,0,1.69.76,1.69,1.69v.4ZM7.08,17.57l-.62,1.31h-.29l-.62-1.31h1.53Z"/><path class="cls-1" d="M21.37,17.52c1.02,0,1.86-.83,1.86-1.86s-.83-1.86-1.86-1.86-1.86.83-1.86,1.86.83,1.86,1.86,1.86ZM20.56,15.66c0-.45.37-.81.82-.81s.81.37.81.81-.37.81-.81.81-.82-.37-.82-.81Z"/><path class="cls-3" d="M6.95,8.5h-.67l1.03-2.5c.1-.24,0-.52-.22-.65-.23-.13-.51-.07-.67.13l-3.45,4.44c-.12.16-.15.37-.06.55.09.18.27.29.47.29h.58l-1.05,2.2c-.11.23-.03.52.18.66.08.06.18.08.28.08.15,0,.3-.07.4-.18l3.58-4.16c.13-.15.16-.37.08-.56-.08-.19-.27-.3-.47-.3Z"/><path class="cls-1" d="M9.26,5.41v5.28c0,.29.23.52.52.52h10.11c.29,0,.52-.23.52-.52v-5.28c0-.29-.23-.52-.52-.52h-10.11c-.29,0-.52.23-.52.52ZM10.3,10.17v-4.24h9.07v4.24h-9.07Z"/><path class="cls-1" d="M11.84,6.28h-.71c-.29,0-.52.23-.52.52s.23.52.52.52h.71c.29,0,.52-.23.52-.52s-.23-.52-.52-.52Z"/><path class="cls-1" d="M11.84,7.53h-.71c-.29,0-.52.23-.52.52s.23.52.52.52h.71c.29,0,.52-.23.52-.52s-.23-.52-.52-.52Z"/><path class="cls-1" d="M11.84,8.77h-.71c-.29,0-.52.23-.52.52s.23.52.52.52h.71c.29,0,.52-.23.52-.52s-.23-.52-.52-.52Z"/><path class="cls-1" d="M14.07,6.28h-.71c-.29,0-.52.23-.52.52s.23.52.52.52h.71c.29,0,.52-.23.52-.52s-.23-.52-.52-.52Z"/><path class="cls-1" d="M14.07,7.53h-.71c-.29,0-.52.23-.52.52s.23.52.52.52h.71c.29,0,.52-.23.52-.52s-.23-.52-.52-.52Z"/><path class="cls-1" d="M14.07,8.77h-.71c-.29,0-.52.23-.52.52s.23.52.52.52h.71c.29,0,.52-.23.52-.52s-.23-.52-.52-.52Z"/><path class="cls-1" d="M16.31,6.28h-.71c-.29,0-.52.23-.52.52s.23.52.52.52h.71c.29,0,.52-.23.52-.52s-.23-.52-.52-.52Z"/><path class="cls-1" d="M16.31,7.53h-.71c-.29,0-.52.23-.52.52s.23.52.52.52h.71c.29,0,.52-.23.52-.52s-.23-.52-.52-.52Z"/><path class="cls-1" d="M16.31,8.77h-.71c-.29,0-.52.23-.52.52s.23.52.52.52h.71c.29,0,.52-.23.52-.52s-.23-.52-.52-.52Z"/><path class="cls-1" d="M18.54,6.28h-.71c-.29,0-.52.23-.52.52s.23.52.52.52h.71c.29,0,.52-.23.52-.52s-.23-.52-.52-.52Z"/><path class="cls-1" d="M18.54,7.53h-.71c-.29,0-.52.23-.52.52s.23.52.52.52h.71c.29,0,.52-.23.52-.52s-.23-.52-.52-.52Z"/><path class="cls-1" d="M18.54,8.77h-.71c-.29,0-.52.23-.52.52s.23.52.52.52h.71c.29,0,.52-.23.52-.52s-.23-.52-.52-.52Z"/></g></svg>