<?xml version="1.0" encoding="UTF-8"?><svg id="Layer_2" xmlns="http://www.w3.org/2000/svg" viewBox="0 0 11.34 11.34"><defs><style>.cls-1{fill:#fff;}.cls-1,.cls-2{stroke-width:0px;}.cls-2{fill:#005da6;}</style></defs><g id="Layer_1-2"><circle class="cls-1" cx="5.67" cy="5.67" r="5.67"/><path class="cls-2" d="M7.46,4.68h-.67l1.03-2.5c.1-.24,0-.52-.22-.65-.23-.13-.51-.07-.67.13l-3.45,4.44c-.12.16-.15.37-.06.55.09.18.27.29.47.29h.58l-1.05,2.2c-.11.23-.03.52.18.66.08.06.18.08.28.08.15,0,.3-.07.4-.18l3.58-4.16c.13-.15.16-.37.08-.56-.08-.19-.27-.3-.47-.3Z"/></g></svg>